<svg width="667" height="784" viewBox="0 0 667 784" fill="none" xmlns="http://www.w3.org/2000/svg">
<path d="M418.175 492.2C553.993 492.2 664.095 382.098 664.095 246.28C664.095 110.462 553.993 0.359863 418.175 0.359863C282.357 0.359863 172.255 110.462 172.255 246.28C172.255 382.098 282.357 492.2 418.175 492.2Z" fill="#EBE2D1"/>
<path d="M601.805 81.2498L578.515 59.0898C550.375 33.2698 510.825 17.5898 474.295 7.11978C422.545 -7.72022 364.465 12.1298 364.465 12.1298C284.825 45.3998 270.615 86.5298 263.855 98.8998C263.115 100.24 261.955 101.36 262.275 103.08C275.325 88.6898 292.115 78.1198 309.905 70.4598C339.175 57.8598 413.655 40.3398 441.165 83.0798C441.075 66.3498 450.565 59.8898 450.565 59.8898C473.035 46.4098 504.415 57.5698 522.955 65.5398C550.625 77.4398 585.555 119.32 547.085 136.53C602.575 158.92 608.035 234.22 583.915 293.35C569.745 328.08 562.465 357.62 516.475 395.7C393.365 497.63 239.545 474.66 186.775 323.55C181.985 309.83 177.915 291.53 175.955 277.11C174.225 264.44 172.875 246.93 173.025 234.14C171.755 235.57 172.545 239.01 172.475 240.67C171.965 252.18 173.065 265.67 174.565 277.12C176.625 292.89 180.285 308.47 185.385 323.56C194.455 350.37 206.965 376.89 225.035 398.82C229.045 403.69 234.385 409.98 239.665 415.45L252.975 428.53C257.475 433.11 262.385 436.56 266.825 440.09C352.715 508.42 476.845 508.54 564.585 443.13C570.735 438.54 575.855 432.29 582.865 429.11L602.825 408.79C606.635 401.68 612.685 396.04 617.395 389.56C683.195 299.12 678.795 164.55 601.815 81.2298L601.805 81.2498Z" fill="#CEC1B2"/>
<path d="M363.865 132.96C375.525 142.29 392.935 149.07 407.775 150.3C453.525 154.12 465.275 117.36 427.405 91.7498C411.175 80.7798 384.525 73.6199 365.495 80.0199C335.775 90.0299 344.235 117.23 363.875 132.95L363.865 132.96Z" fill="#CEC1B2"/>
<path d="M531.185 87.6696C517.795 77.0496 497.695 68.7096 480.685 67.4496C470.795 66.7196 453.635 67.4296 457.935 82.1696C463.575 101.52 500.385 118.25 519.225 121.02C551.745 125.79 555.645 107.08 531.195 87.6796L531.185 87.6696Z" fill="#CEC1B2"/>
<path d="M565.895 208.38C583.775 196.02 554.765 165.61 536.775 167.3C505.785 170.2 546.675 221.66 565.895 208.38Z" fill="#CEC1B2"/>
<path d="M515.115 267.77C515.775 267.72 515.855 257.25 515.835 256.04C515.535 232.64 507.395 208.83 491.655 191.18C484.425 183.07 470.095 175.01 476.965 162.44C480.015 156.85 487.985 152.69 494.055 155.76C508.285 162.96 522.325 196.33 526.035 211.59C530.945 231.81 528.365 251 523.925 271.09" fill="#050E17"/>
<path d="M348.145 366.63C361.125 362.62 374.355 358.6 388.145 359.63C384.045 316.61 404.765 273.4 441.225 250.22C452.125 243.29 465.265 237.12 478.135 235.63C478.805 235.07 470.915 223.61 469.975 222.3C451.795 197.05 424.755 177.33 394.155 170.12C380.095 166.81 358.345 168.96 356.225 150.04C355.285 141.62 360.785 131.01 369.735 129.72C390.725 126.7 431.485 152.32 447.165 166.12C467.945 184.39 479.775 207.26 490.275 232.52C525.805 228.1 562.955 239.99 589.685 263.61C621.135 291.41 639.055 340.24 629.815 381.93L626.845 345.45C615.375 290.24 562.255 239.38 502.935 248.91C431.145 260.45 426.385 342.06 461.855 393.38C489.375 433.19 537.335 450.79 584.155 434.62C580.895 434.09 580.905 433.24 579.155 432.63C572.995 430.48 564.175 422.1 559.155 417.63C555.885 413.34 549.565 405.29 554.605 400.57C560.865 394.72 564.435 401.64 568.825 404.45C584.075 414.22 604.265 416.85 621.155 409.62C618.445 415.39 609.475 430.03 609.475 430.03C589.725 461.28 538.465 474.16 517.145 474.61C517.305 485.21 512.595 494.97 507.145 503.62C504.805 507.34 502.115 510.88 499.185 514.17L499.155 515.6C520.435 526.56 526.075 554.93 522.875 576.85C519.745 598.29 507.205 618.24 490.405 631.69C486.305 634.97 482.095 638.15 477.825 641.21C475.745 642.7 473.645 644.19 471.425 645.47C471.295 645.54 468.055 647.04 468.155 646.62C471.165 633.94 476.835 621.87 480.075 609.05C484.845 590.15 487.405 575.16 481.185 556.09C479.605 551.25 474.465 540.24 470.155 537.62C467.425 535.96 464.315 536.84 462.295 539.25C464.615 561.34 463.225 581.96 454.545 602.5C440.805 635.01 414.355 657.36 384.965 675.26C379.755 678.44 373.875 680.95 367.765 681.57C365.095 681.84 362.435 681.48 361.375 678.76C359.095 672.91 362.455 670.4 366.165 666.61C370.335 662.34 375.135 658.6 379.135 654.08C406.715 622.95 422.465 583.23 428.775 542.41C427.795 541.86 416.995 538.33 415.155 537.61C395.015 529.71 378.895 516.76 362.155 503.61L340.655 481.61C339.935 483.75 342.295 487.03 343.305 488.96C344.665 491.57 346.315 494.31 348.165 496.6C361.295 518.04 379.805 538.38 403.165 548.6C393.825 565.75 383.695 582.82 372.165 598.6C366.165 598.87 363.165 593.78 357.965 592.52L336.165 576.6C335.825 576.29 335.475 575.94 335.165 575.6C330.715 570.84 324.825 567 320.165 562.6C319.175 561.67 318.225 560.6 317.165 559.6C314.805 557.37 312.415 554.93 310.165 552.6C309.515 551.92 308.785 551.26 308.165 550.6L304.165 546.6C301.025 543.13 297.355 538.44 294.165 534.6C266.155 500.9 243.005 462.99 228.165 421.6C261.475 419.12 297.715 417.83 331.165 417.6C333.755 417.58 336.665 417.84 339.165 417.6C339.615 417.56 340.065 417.07 340.165 416.6C342.425 416.63 344.615 417.5 347.165 417.6C347.495 417.61 347.835 417.59 348.165 417.6C359.505 417.94 370.935 418.23 382.175 418.09L348.165 366.6L348.145 366.63Z" fill="#050E17"/>
<path d="M209.155 206.11C262.495 253.1 306.825 309 348.145 366.62L382.155 418.11C370.915 418.25 359.485 417.96 348.145 417.62H347.145C344.595 417.52 340.515 417.6 339.145 417.62C336.645 417.86 333.735 417.6 331.145 417.62L327.155 415.63C338.285 415.28 349.525 416.07 360.665 415.62C361.875 415.57 361.205 417.79 360.975 416.05C287.655 405.46 219.465 390.52 151.795 359.48C131.125 350 108.635 338.77 91.1547 324.62L77.1547 315.62C58.4947 297.32 41.5347 279.02 29.1547 255.62C11.8147 222.84 -7.1553 163.9 3.1547 127.62C4.3547 123.39 6.3947 119.21 10.1547 116.62C35.4247 99.2295 79.2547 118.29 104.175 130.1C131.565 143.08 195.235 193.83 209.165 206.11H209.155Z" fill="#FEBF00"/>
<path d="M178.145 453.629C187.465 486.499 203.795 518.049 223.325 545.949C229.865 555.289 237.345 565.399 245.145 573.629C246.425 574.979 247.835 576.289 249.145 577.629C249.475 577.969 249.815 578.299 250.145 578.629C253.795 584.019 259.385 588.849 264.145 593.629C265.145 594.639 266.145 595.629 267.145 596.629C271.875 601.369 276.675 607.059 282.145 610.629C282.475 610.969 282.825 611.289 283.145 611.629C286.355 614.979 289.535 618.929 294.145 620.629C303.755 629.409 315.585 636.709 327.145 642.629C304.115 658.549 289.335 666.239 262.145 674.629C244.635 665.069 228.325 653.079 213.615 639.659C204.705 631.519 195.985 620.059 187.145 612.629C179.165 602.459 170.645 592.639 163.325 581.949C156.035 571.299 150.335 559.769 143.295 548.979L127.325 509.439C129.135 506.889 132.325 501.829 134.475 498.969C141.975 488.969 154.835 475.249 164.145 465.639C164.475 465.299 164.815 464.979 165.145 464.639C168.005 461.719 178.145 453.639 178.145 453.639V453.629Z" fill="#050E17"/>
<path d="M228.145 421.629C242.985 463.019 266.135 500.929 294.145 534.629C285.085 541.159 276.935 549.119 268.045 556.029C262.155 560.599 253.785 565.099 248.655 569.639C247.345 570.789 246.185 571.689 246.145 573.629L245.815 574.369C238.015 566.139 229.875 555.289 223.335 545.949C203.805 518.059 187.465 486.509 178.155 453.629C192.695 441.829 213.645 428.119 228.155 421.629H228.145Z" fill="#FDC100"/>
<path d="M91.1447 324.629C108.625 338.779 131.115 350.009 151.785 359.489C219.455 390.529 308.925 407.689 382.245 418.269C371.085 418.269 331.145 417.629 331.145 417.629C297.695 417.859 261.545 422.359 228.145 421.629C223.955 421.539 222.055 421.469 222.055 421.469C217.755 421.249 183.055 416.599 178.205 415.749C163.135 413.079 148.095 409.599 134.125 403.209C113.265 393.669 93.7847 376.469 89.6447 352.919C87.8947 342.969 91.4047 334.119 91.1347 324.639L91.1447 324.629Z" fill="#F49901"/>
<path d="M372.125 598.589C359.945 614.449 336.465 636.069 327.145 642.619C315.585 636.699 300.795 628.109 291.175 619.329C291.175 619.329 272.445 604.609 252.145 582.009L244.145 572.619C246.605 571.009 250.635 567.889 251.995 566.799C257.925 562.029 263.575 557.969 269.465 553.399C278.355 546.489 285.075 541.139 294.135 534.609C315.425 561.249 372.115 598.579 372.115 598.579L372.125 598.589Z" fill="#F49901"/>
<path d="M187.145 612.63C187.145 612.63 186.645 613.56 186.145 613.14C185.455 612.56 185.445 610.73 184.505 610.54C179.485 609.51 145.685 637.33 138.365 640.35L138.145 643.63C134.955 640.14 131.305 636.97 128.175 633.1C114.615 616.38 103.255 596.3 97.1447 575.63C99.2047 555.87 127.075 509.78 127.325 509.43L143.295 548.97C150.335 559.76 156.035 571.29 163.325 581.94C170.645 592.63 179.165 602.46 187.145 612.62V612.63Z" fill="#FDC100"/>
<path d="M138.145 643.629C138.805 644.349 139.515 644.949 140.145 645.629L143.145 648.629C144.085 649.599 175.585 677.399 191.145 687.629C188.775 687.819 187.135 687.499 185.145 687.629C174.025 687.249 162.765 688.149 151.655 687.619C138.745 686.999 120.145 682.219 108.675 682.579C96.2747 682.969 77.0047 695.239 63.1447 695.629C62.9247 693.689 63.8747 692.259 64.6147 690.609C68.3147 682.319 77.9347 668.269 79.9047 660.889C82.2847 651.979 81.8347 638.809 83.2647 629.249C86.0647 610.559 91.2147 593.379 97.1447 575.629C103.255 596.299 114.615 616.389 128.175 633.099C131.305 636.959 134.955 640.139 138.145 643.629Z" fill="#050E17"/>
<path d="M415.145 537.629L403.145 548.629C379.785 538.409 361.275 518.069 348.145 496.629L353.155 494.399C364.145 505.289 395.005 529.739 415.145 537.629Z" fill="#F49901"/>
<path d="M628.525 343.81C616.805 287.92 562.245 239.37 502.925 248.9C431.135 260.44 426.375 342.05 461.845 393.37C489.365 433.18 537.325 450.78 584.145 434.61C581.535 433.82 580.895 433.23 579.145 432.62C572.985 430.47 564.165 422.09 559.145 417.62C555.875 413.33 549.555 405.28 554.595 400.56C560.855 394.71 564.425 401.63 568.815 404.44C584.065 414.21 604.255 416.84 621.145 409.61C624.735 401.96 627.155 395.58 629.805 381.91C629.805 381.91 632.625 363.32 628.525 343.8V343.81ZM540.365 355.35C522.045 360.89 504.785 344.5 505.245 326.23C505.495 316.49 513.715 303.59 523.885 301.86C562.355 295.33 569.305 346.58 540.365 355.34V355.35Z" fill="#FEBF00"/>
<path d="M348.145 496.63C346.295 494.34 344.645 491.6 343.285 488.99C342.285 487.06 339.925 483.78 340.635 481.64L353.865 495.15C353.805 495.1 348.145 496.64 348.145 496.64V496.63Z" fill="#FEBF00"/>
<path d="M348.145 417.629C347.815 417.619 347.475 417.639 347.145 417.629H348.145Z" fill="#F49901"/>
<path d="M308.145 550.629C306.905 549.309 305.575 548.209 304.145 546.629L308.145 550.629Z" fill="#FEBF00"/>
<path d="M135.815 641.369C135.815 641.369 180.795 611.109 183.875 608.169C192.025 616.629 204.705 631.519 213.615 639.659C228.325 653.089 244.635 665.069 262.145 674.629C237.225 682.319 217.345 685.529 191.145 687.629C170.765 675.889 141.035 646.579 140.145 645.629C139.515 644.949 136.475 642.099 135.815 641.369Z" fill="#F49901"/>
<path d="M143.145 648.629L140.145 645.629C141.035 646.579 142.175 647.629 143.145 648.629Z" fill="#FDC100"/>
<path d="M523.885 301.869C562.355 295.339 569.305 346.589 540.365 355.349C522.045 360.899 504.785 344.499 505.245 326.229C505.495 316.489 513.715 303.589 523.885 301.859V301.869Z" fill="#050E17"/>
<path opacity="0.3" d="M324.325 783.88C435.748 783.88 526.075 779.68 526.075 774.5C526.075 769.319 435.748 765.12 324.325 765.12C212.901 765.12 122.575 769.319 122.575 774.5C122.575 779.68 212.901 783.88 324.325 783.88Z" fill="#050E17"/>
<path d="M381.405 418.12C381.655 418.12 381.905 418.12 382.155 418.12L360.535 385.39C289.755 331.81 210.365 269.59 120.255 224.31L381.415 418.12H381.405Z" fill="#F49901"/>
</svg>
