<svg width="32" height="32" viewBox="0 0 32 32" fill="none" xmlns="http://www.w3.org/2000/svg">
  <!-- Moon (half circle / crescent behind the bee) -->
  <circle cx="16" cy="16" r="14" fill="#FEBF00" opacity="0.15"/>
  <path d="M16 2C23.732 2 30 8.268 30 16C30 23.732 23.732 30 16 30" stroke="#FEBF00" stroke-width="2.5" stroke-linecap="round" fill="none"/>

  <!-- Bee body - clean rounded shape -->
  <ellipse cx="15.5" cy="17" rx="6" ry="5" fill="#1A1A1A"/>

  <!-- Bee head -->
  <circle cx="22" cy="15.5" r="3.2" fill="#1A1A1A"/>

  <!-- Bee stripes -->
  <path d="M11.5 15.5h8" stroke="#FEBF00" stroke-width="1.8" stroke-linecap="round"/>
  <path d="M12 18.2h7" stroke="#FEBF00" stroke-width="1.8" stroke-linecap="round"/>

  <!-- Wings - two clean teardrop shapes -->
  <ellipse cx="14" cy="11" rx="3.5" ry="2.2" transform="rotate(-25 14 11)" fill="#FEBF00" opacity="0.5"/>
  <ellipse cx="17.5" cy="10" rx="3" ry="2" transform="rotate(10 17.5 10)" fill="#FEBF00" opacity="0.4"/>

  <!-- Antennae -->
  <path d="M24 13.5C25.5 11 27 10.5 28 11" stroke="#1A1A1A" stroke-width="1.2" stroke-linecap="round" fill="none"/>
  <path d="M24.5 14.5C26 13 27.5 13 28.5 13.5" stroke="#1A1A1A" stroke-width="1.2" stroke-linecap="round" fill="none"/>

  <!-- Eye -->
  <circle cx="23" cy="15" r="0.8" fill="white"/>
</svg>
