<svg width="32" height="32" viewBox="0 0 32 32" fill="none" xmlns="http://www.w3.org/2000/svg">
  <!-- Crescent moon arc -->
  <path d="M6 16C6 10.477 10.477 6 16 6C21.523 6 26 10.477 26 16C26 21.523 21.523 26 16 26" stroke="#FEBF00" stroke-width="2.5" stroke-linecap="round" fill="none"/>

  <!-- Bee body - plump rounded -->
  <path d="M10 18.5C10 15.5 12.5 13 16 13C19.5 13 22 15.5 22 18.5C22 21.5 19.5 23 16 23C12.5 23 10 21.5 10 18.5Z" fill="#1A1A1A"/>

  <!-- Bee head -->
  <circle cx="22.5" cy="16" r="3" fill="#1A1A1A"/>

  <!-- Yellow stripes on body -->
  <line x1="12" y1="17" x2="20" y2="17" stroke="#FEBF00" stroke-width="1.5" stroke-linecap="round"/>
  <line x1="11.5" y1="19.5" x2="20.5" y2="19.5" stroke="#FEBF00" stroke-width="1.5" stroke-linecap="round"/>

  <!-- Wings - clean ovals above -->
  <ellipse cx="14.5" cy="11.5" rx="4" ry="2.5" transform="rotate(-15 14.5 11.5)" fill="#FEBF00" opacity="0.45"/>
  <ellipse cx="19" cy="10.5" rx="3.5" ry="2" transform="rotate(15 19 10.5)" fill="#FEBF00" opacity="0.35"/>

  <!-- Antennae - two clean curves -->
  <path d="M24.5 14C26 11.5 28 11 29 11.5" stroke="#1A1A1A" stroke-width="1.3" stroke-linecap="round" fill="none"/>
  <path d="M25 15C27 14 28.5 14 29 15" stroke="#1A1A1A" stroke-width="1.3" stroke-linecap="round" fill="none"/>

  <!-- Eye dot -->
  <circle cx="23.5" cy="15.5" r="1" fill="white"/>

  <!-- Stinger -->
  <circle cx="9.5" cy="19" r="0.8" fill="#FEBF00"/>
</svg>
