<svg width="100%" height="100%" viewBox="0 0 50 15" fill="none" xmlns="http://www.w3.org/2000/svg">
<g clip-path="url(#clip0_4029_163)">
<path d="M1.456 12.2579C1.096 12.2579 0.840001 12.2059 0.688001 12.1019C0.536001 11.9899 0.444001 11.8499 0.412001 11.6819C0.388001 11.5139 0.376001 11.3419 0.376001 11.1659V7.2419C0.376001 7.0579 0.392001 6.8859 0.424001 6.7259C0.456001 6.5579 0.548001 6.4219 0.700001 6.3179C0.852001 6.2139 1.112 6.1619 1.48 6.1619C1.84 6.1619 2.1 6.2339 2.26 6.3779C2.428 6.5139 2.512 6.7379 2.512 7.0499L2.308 6.9899C2.308 6.9899 2.336 6.9499 2.392 6.8699C2.456 6.7819 2.544 6.6819 2.656 6.5699C2.776 6.4579 2.92 6.3619 3.088 6.2819C3.256 6.1939 3.448 6.1499 3.664 6.1499C3.912 6.1499 4.14 6.1819 4.348 6.2459C4.556 6.3099 4.744 6.4099 4.912 6.5459C5.088 6.6739 5.24 6.8339 5.368 7.0259C5.456 6.9219 5.576 6.8019 5.728 6.6659C5.88 6.5299 6.06 6.4099 6.268 6.3059C6.484 6.2019 6.724 6.1499 6.988 6.1499C7.46 6.1499 7.86 6.2699 8.188 6.5099C8.524 6.7499 8.776 7.0979 8.944 7.5539C9.12 8.0099 9.208 8.5619 9.208 9.2099V11.1659C9.208 11.3419 9.192 11.5139 9.16 11.6819C9.128 11.8499 9.036 11.9899 8.884 12.1019C8.732 12.2059 8.472 12.2579 8.104 12.2579C7.744 12.2579 7.488 12.2019 7.336 12.0899C7.184 11.9779 7.092 11.8379 7.06 11.6699C7.036 11.5019 7.024 11.3299 7.024 11.1539V9.1979C7.024 9.0059 7 8.8499 6.952 8.7299C6.912 8.6019 6.848 8.5059 6.76 8.4419C6.68 8.3779 6.576 8.3459 6.448 8.3459C6.312 8.3459 6.2 8.3739 6.112 8.4299C6.032 8.4859 5.972 8.5779 5.932 8.7059C5.9 8.8259 5.884 8.9939 5.884 9.2099V11.1659C5.884 11.3419 5.868 11.5139 5.836 11.6819C5.804 11.8499 5.712 11.9899 5.56 12.1019C5.408 12.2059 5.148 12.2579 4.78 12.2579C4.42 12.2579 4.164 12.2019 4.012 12.0899C3.86 11.9779 3.768 11.8379 3.736 11.6699C3.712 11.5019 3.7 11.3299 3.7 11.1539V9.1979C3.7 9.0059 3.68 8.8459 3.64 8.7179C3.6 8.5899 3.536 8.4979 3.448 8.4419C3.368 8.3779 3.26 8.3459 3.124 8.3459C2.964 8.3459 2.844 8.3859 2.764 8.4659C2.684 8.5459 2.628 8.6499 2.596 8.7779C2.572 8.9059 2.56 9.0459 2.56 9.1979V11.1779C2.56 11.3539 2.544 11.5259 2.512 11.6939C2.48 11.8619 2.388 11.9979 2.236 12.1019C2.084 12.2059 1.824 12.2579 1.456 12.2579ZM12.8922 12.3659C12.5242 12.3659 12.1522 12.2939 11.7762 12.1499C11.4002 11.9979 11.0522 11.7859 10.7322 11.5139C10.4202 11.2339 10.1682 10.9019 9.97619 10.5179C9.79219 10.1259 9.70019 9.6899 9.70019 9.2099C9.70019 8.7699 9.78419 8.3579 9.95219 7.9739C10.1202 7.5899 10.3482 7.2539 10.6362 6.9659C10.9322 6.6699 11.2682 6.4379 11.6442 6.2699C12.0282 6.1019 12.4362 6.0179 12.8682 6.0179C13.4602 6.0179 13.9962 6.1619 14.4762 6.4499C14.9562 6.7299 15.3402 7.1099 15.6282 7.5899C15.9162 8.0699 16.0602 8.6059 16.0602 9.1979C16.0602 9.7019 15.9642 10.1499 15.7722 10.5419C15.5802 10.9339 15.3282 11.2659 15.0162 11.5379C14.7042 11.8099 14.3602 12.0139 13.9842 12.1499C13.6162 12.2939 13.2522 12.3659 12.8922 12.3659ZM12.8682 10.1699C12.9882 10.1699 13.1242 10.1419 13.2762 10.0859C13.4362 10.0219 13.5722 9.9179 13.6842 9.7739C13.8042 9.6299 13.8642 9.4339 13.8642 9.1859C13.8642 8.9859 13.8202 8.8139 13.7322 8.6699C13.6522 8.5259 13.5362 8.4139 13.3842 8.3339C13.2322 8.2539 13.0562 8.2139 12.8562 8.2139C12.6802 8.2139 12.5202 8.2579 12.3762 8.3459C12.2322 8.4259 12.1162 8.5419 12.0282 8.6939C11.9402 8.8379 11.8962 9.0059 11.8962 9.1979C11.8962 9.4379 11.9522 9.6299 12.0642 9.7739C12.1762 9.9179 12.3082 10.0219 12.4602 10.0859C12.6122 10.1419 12.7482 10.1699 12.8682 10.1699ZM19.5836 12.3659C19.2156 12.3659 18.8436 12.2939 18.4676 12.1499C18.0916 11.9979 17.7436 11.7859 17.4236 11.5139C17.1116 11.2339 16.8596 10.9019 16.6676 10.5179C16.4836 10.1259 16.3916 9.6899 16.3916 9.2099C16.3916 8.7699 16.4756 8.3579 16.6436 7.9739C16.8116 7.5899 17.0396 7.2539 17.3276 6.9659C17.6236 6.6699 17.9596 6.4379 18.3356 6.2699C18.7196 6.1019 19.1276 6.0179 19.5596 6.0179C20.1516 6.0179 20.6876 6.1619 21.1676 6.4499C21.6476 6.7299 22.0316 7.1099 22.3196 7.5899C22.6076 8.0699 22.7516 8.6059 22.7516 9.1979C22.7516 9.7019 22.6556 10.1499 22.4636 10.5419C22.2716 10.9339 22.0196 11.2659 21.7076 11.5379C21.3956 11.8099 21.0516 12.0139 20.6756 12.1499C20.3076 12.2939 19.9436 12.3659 19.5836 12.3659ZM19.5596 10.1699C19.6796 10.1699 19.8156 10.1419 19.9676 10.0859C20.1276 10.0219 20.2636 9.9179 20.3756 9.7739C20.4956 9.6299 20.5556 9.4339 20.5556 9.1859C20.5556 8.9859 20.5116 8.8139 20.4236 8.6699C20.3436 8.5259 20.2276 8.4139 20.0756 8.3339C19.9236 8.2539 19.7476 8.2139 19.5476 8.2139C19.3716 8.2139 19.2116 8.2579 19.0676 8.3459C18.9236 8.4259 18.8076 8.5419 18.7196 8.6939C18.6316 8.8379 18.5876 9.0059 18.5876 9.1979C18.5876 9.4379 18.6436 9.6299 18.7556 9.7739C18.8676 9.9179 18.9996 10.0219 19.1516 10.0859C19.3036 10.1419 19.4396 10.1699 19.5596 10.1699ZM24.355 12.2459C23.995 12.2459 23.739 12.1939 23.587 12.0899C23.435 11.9779 23.343 11.8379 23.311 11.6699C23.287 11.5019 23.275 11.3299 23.275 11.1539V7.2059C23.275 7.0299 23.291 6.8619 23.323 6.7019C23.355 6.5419 23.447 6.4139 23.599 6.3179C23.751 6.2139 24.007 6.1619 24.367 6.1619C24.695 6.1619 24.931 6.2059 25.075 6.2939C25.227 6.3739 25.323 6.4739 25.363 6.5939C25.403 6.7139 25.419 6.8259 25.411 6.9299C25.411 7.0259 25.419 7.0859 25.435 7.1099L25.339 7.1819C25.331 7.0619 25.375 6.9419 25.471 6.8219C25.575 6.7019 25.707 6.5939 25.867 6.4979C26.035 6.3939 26.211 6.3139 26.395 6.2579C26.587 6.1939 26.767 6.1619 26.935 6.1619C27.335 6.1619 27.687 6.2379 27.991 6.3899C28.295 6.5419 28.547 6.7579 28.747 7.0379C28.955 7.3099 29.111 7.6299 29.215 7.9979C29.319 8.3659 29.371 8.7659 29.371 9.1979V11.1659C29.371 11.3419 29.355 11.5139 29.323 11.6819C29.291 11.8499 29.199 11.9859 29.047 12.0899C28.903 12.1939 28.647 12.2459 28.279 12.2459C27.911 12.2459 27.651 12.1939 27.499 12.0899C27.347 11.9779 27.255 11.8379 27.223 11.6699C27.191 11.5019 27.175 11.3299 27.175 11.1539V9.1979C27.175 9.0139 27.139 8.8579 27.067 8.7299C27.003 8.6019 26.907 8.5059 26.779 8.4419C26.659 8.3699 26.507 8.3339 26.323 8.3339C26.147 8.3339 25.991 8.3699 25.855 8.4419C25.727 8.5139 25.627 8.6139 25.555 8.7419C25.483 8.8699 25.447 9.0219 25.447 9.1979V11.1659C25.447 11.3419 25.431 11.5139 25.399 11.6819C25.367 11.8499 25.275 11.9859 25.123 12.0899C24.979 12.1939 24.723 12.2459 24.355 12.2459ZM33.4079 12.2339C33.0159 12.2339 32.6759 12.1499 32.3879 11.9819C32.0999 11.8059 31.8639 11.5739 31.6799 11.2859C31.4959 10.9899 31.3599 10.6619 31.2719 10.3019C31.1839 9.9339 31.1439 9.5539 31.1519 9.1619C31.1599 8.7779 31.2079 8.4059 31.2959 8.0459C31.3919 7.6859 31.5319 7.3659 31.7159 7.0859C31.8999 6.8059 32.1319 6.5859 32.4119 6.4259C32.6919 6.2579 33.0239 6.1739 33.4079 6.1739C33.7599 6.1739 34.0999 6.2579 34.4279 6.4259C34.7639 6.5939 35.0639 6.8219 35.3279 7.1099C35.5919 7.3899 35.7999 7.7099 35.9519 8.0699C36.1039 8.4299 36.1799 8.8019 36.1799 9.1859C36.1799 9.5859 36.1039 9.9699 35.9519 10.3379C35.7999 10.7059 35.5919 11.0339 35.3279 11.3219C35.0719 11.6019 34.7759 11.8259 34.4399 11.9939C34.1119 12.1539 33.7679 12.2339 33.4079 12.2339ZM33.1199 10.0739C33.2799 10.0739 33.4239 10.0339 33.5519 9.9539C33.6879 9.8739 33.7959 9.7699 33.8759 9.6419C33.9559 9.5059 33.9959 9.3619 33.9959 9.2099C33.9959 9.0499 33.9559 8.9059 33.8759 8.7779C33.8039 8.6419 33.6999 8.5379 33.5639 8.4659C33.4359 8.3859 33.2919 8.3459 33.1319 8.3459C32.9719 8.3459 32.8239 8.3859 32.6879 8.4659C32.5599 8.5459 32.4559 8.6499 32.3759 8.7779C32.3039 8.9059 32.2679 9.0499 32.2679 9.2099C32.2679 9.3619 32.3079 9.5059 32.3879 9.6419C32.4679 9.7699 32.5719 9.8739 32.6999 9.9539C32.8279 10.0339 32.9679 10.0739 33.1199 10.0739ZM31.1519 12.2459C30.7919 12.2459 30.5359 12.1939 30.3839 12.0899C30.2319 11.9779 30.1399 11.8379 30.1079 11.6699C30.0839 11.5019 30.0719 11.3299 30.0719 11.1539V4.4939C30.0719 4.3099 30.0879 4.1379 30.1199 3.9779C30.1519 3.8099 30.2439 3.6739 30.3959 3.5699C30.5479 3.4659 30.8039 3.4139 31.1639 3.4139C31.5239 3.4139 31.7759 3.4699 31.9199 3.5819C32.0639 3.6859 32.1479 3.8219 32.1719 3.9899C32.1959 4.1579 32.2039 4.3299 32.1959 4.5059V11.6459C32.1399 11.8539 32.0319 12.0059 31.8719 12.1019C31.7199 12.1979 31.4799 12.2459 31.1519 12.2459Z" fill="currentcolor"></path>
<path d="M39.8124 12.3899C39.2124 12.3899 38.7044 12.2939 38.2884 12.1019C37.8724 11.9019 37.5364 11.6459 37.2804 11.3339C37.0244 11.0139 36.8364 10.6699 36.7164 10.3019C36.5964 9.9339 36.5364 9.5779 36.5364 9.2339C36.5364 8.6019 36.6764 8.0459 36.9564 7.5659C37.2364 7.0859 37.6244 6.7099 38.1204 6.4379C38.6164 6.1659 39.1844 6.0299 39.8244 6.0299C40.3204 6.0299 40.7444 6.1099 41.0964 6.2699C41.4484 6.4299 41.7324 6.6339 41.9484 6.8819C42.1724 7.1299 42.3364 7.3939 42.4404 7.6739C42.5444 7.9539 42.5964 8.2139 42.5964 8.4539C42.5964 8.9099 42.4844 9.2579 42.2604 9.4979C42.0364 9.7379 41.7484 9.8579 41.3964 9.8579H38.8404C38.8724 9.9859 38.9364 10.0979 39.0324 10.1939C39.1364 10.2819 39.2644 10.3539 39.4164 10.4099C39.5684 10.4579 39.7324 10.4819 39.9084 10.4819C40.0844 10.4819 40.2404 10.4739 40.3764 10.4579C40.5124 10.4339 40.6284 10.4059 40.7244 10.3739C40.8284 10.3419 40.9204 10.3099 41.0004 10.2779C41.0884 10.2459 41.1644 10.2219 41.2284 10.2059C41.3004 10.1819 41.3684 10.1699 41.4324 10.1699C41.5764 10.1699 41.7084 10.2179 41.8284 10.3139C41.9484 10.4099 42.0564 10.5539 42.1524 10.7459C42.2084 10.8499 42.2484 10.9499 42.2724 11.0459C42.2964 11.1339 42.3084 11.2179 42.3084 11.2979C42.3084 11.5379 42.2084 11.7379 42.0084 11.8979C41.8164 12.0579 41.5364 12.1779 41.1684 12.2579C40.8004 12.3459 40.3484 12.3899 39.8124 12.3899ZM38.8404 8.7299H40.1844C40.2964 8.7299 40.3764 8.7059 40.4244 8.6579C40.4804 8.6099 40.5084 8.5379 40.5084 8.4419C40.5084 8.3379 40.4764 8.2499 40.4124 8.1779C40.3564 8.1059 40.2764 8.0539 40.1724 8.0219C40.0684 7.9819 39.9444 7.9619 39.8004 7.9619C39.6084 7.9619 39.4404 8.0019 39.2964 8.0819C39.1524 8.1539 39.0404 8.2499 38.9604 8.3699C38.8884 8.4819 38.8484 8.6019 38.8404 8.7299ZM46.2343 12.3899C45.6343 12.3899 45.1263 12.2939 44.7103 12.1019C44.2943 11.9019 43.9583 11.6459 43.7023 11.3339C43.4463 11.0139 43.2583 10.6699 43.1383 10.3019C43.0183 9.9339 42.9583 9.5779 42.9583 9.2339C42.9583 8.6019 43.0983 8.0459 43.3783 7.5659C43.6583 7.0859 44.0463 6.7099 44.5423 6.4379C45.0383 6.1659 45.6063 6.0299 46.2463 6.0299C46.7423 6.0299 47.1663 6.1099 47.5183 6.2699C47.8703 6.4299 48.1543 6.6339 48.3703 6.8819C48.5943 7.1299 48.7583 7.3939 48.8623 7.6739C48.9663 7.9539 49.0183 8.2139 49.0183 8.4539C49.0183 8.9099 48.9063 9.2579 48.6823 9.4979C48.4583 9.7379 48.1703 9.8579 47.8183 9.8579H45.2623C45.2943 9.9859 45.3583 10.0979 45.4543 10.1939C45.5583 10.2819 45.6863 10.3539 45.8383 10.4099C45.9903 10.4579 46.1543 10.4819 46.3303 10.4819C46.5063 10.4819 46.6623 10.4739 46.7983 10.4579C46.9343 10.4339 47.0503 10.4059 47.1463 10.3739C47.2503 10.3419 47.3423 10.3099 47.4223 10.2779C47.5103 10.2459 47.5863 10.2219 47.6503 10.2059C47.7223 10.1819 47.7903 10.1699 47.8543 10.1699C47.9983 10.1699 48.1303 10.2179 48.2503 10.3139C48.3703 10.4099 48.4783 10.5539 48.5743 10.7459C48.6303 10.8499 48.6703 10.9499 48.6943 11.0459C48.7183 11.1339 48.7303 11.2179 48.7303 11.2979C48.7303 11.5379 48.6303 11.7379 48.4303 11.8979C48.2383 12.0579 47.9583 12.1779 47.5903 12.2579C47.2223 12.3459 46.7703 12.3899 46.2343 12.3899ZM45.2623 8.7299H46.6063C46.7183 8.7299 46.7983 8.7059 46.8463 8.6579C46.9023 8.6099 46.9303 8.5379 46.9303 8.4419C46.9303 8.3379 46.8983 8.2499 46.8343 8.1779C46.7783 8.1059 46.6983 8.0539 46.5943 8.0219C46.4903 7.9819 46.3663 7.9619 46.2223 7.9619C46.0303 7.9619 45.8623 8.0019 45.7183 8.0819C45.5743 8.1539 45.4623 8.2499 45.3823 8.3699C45.3103 8.4819 45.2703 8.6019 45.2623 8.7299Z" fill="#FFD77A"></path>
</g>
<defs>
<clipPath id="clip0_4029_163">
<rect width="50" height="15" fill="white"></rect>
</clipPath>
</defs>
</svg>